{
  "asset": {
    "version": "2.0",
    "generator": "THREE.GLTFExporter"
  },
  "scenes": [
    {
      "nodes": [
        0
      ]
    }
  ],
  "scene": 0,
  "nodes": [
    {
      "children": [
        9
      ],
      "matrix": [
        0.01,
        0,
        0,
        0,
        0,
        0.01,
        0,
        0,
        0,
        0,
        0.01,
        0,
        0,
        0,
        0,
        1
      ]
    },
    {
      "matrix": [
        0.6392235824372867,
        1.2801963683584106e-8,
        -0.7690209435743872,
        0,
        -0.39355832384851064,
        0.8591252337981825,
        -0.3271325089023849,
        0,
        0.6606852937561057,
        0.511765407829816,
        0.5491731147490652,
        0,
        312.9335258831445,
        248.12263049836275,
        256.0856850606755,
        1
      ],
      "name": "Camera",
      "camera": 0
    },
    {
      "matrix": [
        1.05,
        0,
        0,
        0,
        0,
        1.05,
        0,
        0,
        0,
        0,
        1.05,
        0,
        0.8353251457214341,
        0.693680763244629,
        -0.1165781021118164,
        1
      ],
      "name": "terra",
      "mesh": 0
    },
    {
      "matrix": [
        1,
        0,
        0,
        0,
        0,
        1,
        0,
        0,
        0,
        0,
        1,
        0,
        0.8353251457214341,
        0.6936807632446289,
        0.07993221282958984,
        1
      ],
      "name": "mare",
      "mesh": 1
    },
    {
      "matrix": [
        1.04,
        0,
        0,
        0,
        0,
        1.0400000000000003,
        0,
        0,
        0,
        0,
        1.0400000000000003,
        0,
        0.8353251457214342,
        0.6936807632446289,
        -0.11657810211181639,
        1
      ],
      "name": "bordo",
      "mesh": 2
    },
    {
      "matrix": [
        1,
        0,
        0,
        0,
        0,
        1,
        0,
        0,
        0,
        0,
        1,
        0,
        3.164674854278566,
        6.306319236755371,
        6.116578102111816,
        1
      ],
      "name": "Group",
      "children": [
        2,
        3,
        4
      ]
    },
    {
      "matrix": [
        0.4755932521382019,
        0.35112609652095633,
        -0.8065491447286797,
        0,
        -0.5939541090191147,
        0.8044989225470159,
        0,
        0,
        0.64886791791544,
        0.47905317863745195,
        0.591167046728279,
        0,
        0,
        0,
        0,
        1
      ],
      "name": "Directional Light",
      "extensions": {
        "KHR_lights_punctual": {
          "light": 0
        }
      }
    },
    {
      "matrix": [
        0.8241233650981601,
        -1.955770903561138e-8,
        0.5664103451555986,
        0,
        0.2109280661730235,
        0.9280745643220251,
        -0.30689893117929223,
        0,
        -0.5256710283055301,
        0.37239441867257217,
        0.7648479371363459,
        0,
        -230.8883490323699,
        156.47685125408964,
        255.7849494220978,
        1
      ],
      "name": "Personal Camera",
      "camera": 1
    },
    {
      "matrix": [
        1,
        0,
        0,
        0,
        0,
        1,
        0,
        0,
        0,
        0,
        1,
        0,
        0,
        1,
        0,
        1
      ],
      "name": "Default Ambient Light"
    },
    {
      "name": "Scene 1",
      "children": [
        1,
        5,
        6,
        7,
        8
      ]
    }
  ],
  "cameras": [
    {
      "type": "orthographic",
      "orthographic": {
        "xmag": 1.1928108637989958,
        "ymag": 0.7123731547688447,
        "zfar": 100000,
        "znear": 0
      },
      "name": "Camera"
    },
    {
      "type": "orthographic",
      "orthographic": {
        "xmag": 1.6226690554086074,
        "ymag": 0.9690940192023627,
        "zfar": 100000,
        "znear": 0
      },
      "name": "Camera"
    }
  ],
  "bufferViews": [
    {
      "buffer": 0,
      "byteOffset": 0,
      "byteLength": 70164,
      "target": 34962,
      "byteStride": 12
    },
    {
      "buffer": 0,
      "byteOffset": 70164,
      "byteLength": 70164,
      "target": 34962,
      "byteStride": 12
    },
    {
      "buffer": 0,
      "byteOffset": 140328,
      "byteLength": 43524,
      "target": 34962,
      "byteStride": 12
    },
    {
      "buffer": 0,
      "byteOffset": 183852,
      "byteLength": 43524,
      "target": 34962,
      "byteStride": 12
    },
    {
      "buffer": 0,
      "byteOffset": 227376,
      "byteLength": 146016,
      "target": 34962,
      "byteStride": 12
    },
    {
      "buffer": 0,
      "byteOffset": 373392,
      "byteLength": 146016,
      "target": 34962,
      "byteStride": 12
    }
  ],
  "buffers": [
    {
      "byteLength": 519408,
      "uri": "data:application/octet-stream;base64,"
    }
  ],
  "accessors": [
    {
      "bufferView": 0,
      "componentType": 5126,
      "count": 5847,
      "max": [
        43.86225128173828,
        49.339351654052734,
        50.27980422973633
      ],
      "min": [
        -49.595943450927734,
        -50.660648345947266,
        -50.0577507019043
      ],
      "type": "VEC3"
    },
    {
      "bufferView": 1,
      "componentType": 5126,
      "count": 5847,
      "max": [
        1,
        0.989203691482544,
        0.9984199404716492
      ],
      "min": [
        -0.9910726547241211,
        -0.9996516108512878,
        -0.999869704246521
      ],
      "type": "VEC3"
    },
    {
      "bufferView": 2,
      "componentType": 5126,
      "count": 3627,
      "max": [
        50.40509033203125,
        50.47289276123047,
        50.41669845581055
      ],
      "min": [
        -50.470062255859375,
        -49.52710723876953,
        -50.476314544677734
      ],
      "type": "VEC3"
    },
    {
      "bufferView": 3,
      "componentType": 5126,
      "count": 3627,
      "max": [
        0.9997467994689941,
        0.9982122778892517,
        0.9999486207962036
      ],
      "min": [
        -0.9995448589324951,
        -0.9734201431274414,
        -0.9939504861831665
      ],
      "type": "VEC3"
    },
    {
      "bufferView": 4,
      "componentType": 5126,
      "count": 12168,
      "max": [
        47.440673828125,
        49.339351654052734,
        50.27980422973633
      ],
      "min": [
        -49.595943450927734,
        -50.660648345947266,
        -50.0577507019043
      ],
      "type": "VEC3"
    },
    {
      "bufferView": 5,
      "componentType": 5126,
      "count": 12168,
      "max": [
        1,
        0.9982122778892517,
        0.9999486207962036
      ],
      "min": [
        -0.9995448589324951,
        -0.9996516108512878,
        -0.999869704246521
      ],
      "type": "VEC3"
    }
  ],
  "meshes": [
    {
      "primitives": [
        {
          "mode": 4,
          "attributes": {
            "POSITION": 0,
            "NORMAL": 1
          },
          "extras": {
            "parameters": {
              "width": 93.45819473266602,
              "height": 100,
              "depth": 100.33755493164062,
              "subdivisions": 0
            },
            "type": "NonParametricGeometry"
          }
        }
      ]
    },
    {
      "primitives": [
        {
          "mode": 4,
          "attributes": {
            "POSITION": 2,
            "NORMAL": 3
          },
          "extras": {
            "parameters": {
              "width": 100.87515258789062,
              "height": 100,
              "depth": 100.89301300048828,
              "subdivisions": 0
            },
            "type": "NonParametricGeometry"
          }
        }
      ]
    },
    {
      "primitives": [
        {
          "mode": 4,
          "attributes": {
            "POSITION": 4,
            "NORMAL": 5
          },
          "extras": {
            "parameters": {
              "width": 97.03661727905273,
              "height": 100,
              "depth": 100.33755493164062,
              "subdivisions": 0
            },
            "type": "NonParametricGeometry"
          }
        }
      ]
    }
  ],
  "extensions": {
    "KHR_lights_punctual": {
      "lights": [
        {
          "name": "Directional Light",
          "color": [
            1,
            1,
            1
          ],
          "intensity": 0.7,
          "type": "directional"
        }
      ]
    }
  },
  "extensionsUsed": [
    "KHR_lights_punctual"
  ]
}